<?xml version="1.0" encoding="UTF-8" standalone="no"?>
<svg
   width="559.87604"
   height="924.22784"
   viewBox="0 0 559.87604 924.22784"
   version="1.1"
   id="svg68"
   sodipodi:docname="logo.svg"
   xmlns:inkscape="http://www.inkscape.org/namespaces/inkscape"
   xmlns:sodipodi="http://sodipodi.sourceforge.net/DTD/sodipodi-0.dtd"
   xmlns="http://www.w3.org/2000/svg"
   xmlns:svg="http://www.w3.org/2000/svg">
  <sodipodi:namedview
     id="namedview68"
     pagecolor="#ffffff"
     bordercolor="#000000"
     borderopacity="0.25"
     inkscape:showpageshadow="2"
     inkscape:pageopacity="0.0"
     inkscape:pagecheckerboard="0"
     inkscape:deskcolor="#d1d1d1">
    <inkscape:page
       x="0"
       y="0"
       width="559.87604"
       height="924.22784"
       id="page2"
       margin="0"
       bleed="0" />
  </sodipodi:namedview>
  <path
     fill="#074e2d"
     d="m 295.99717,0 c 10.155,2.828 13.194,35.018 14.655,44.667 6.812,-1.05 8.074,-0.18 10.278,6.974 4.808,15.611 5.925,31.926 5.373,48.162 7.671,-6.001 35.74,-26.035 45.588,-19.22 1.162,1.596 1.183,3.516 1.444,5.515 8.112,-3.449 17.876,-5.672 26.583,-7 3.815,-0.581 32.761,-4.106 31.119,4.152 -3.717,18.703 -14.363,38.075 -26.797,52.372 2.976,0.837 5.868,1.35 7.943,3.635 0.706,2.012 0.728,3.465 -0.246,5.468 -6.816,14.016 -24.243,26.837 -37.898,32.74 0.435,1.221 1.963,4.886 0.866,5.903 -10.283,9.529 -29.493,12.783 -42.794,14.853 2.031,1.218 4.464,2.378 6.595,3.458 50.725,25.708 61.498,85.29 68.863,136.882 l 6.784,49.411 a 2263,2263 0 0 0 11.244,76.093 c 1.782,10.824 3.684,23.751 5.922,34.337 5.472,-3.002 9.081,-5.4 13.24,-10.242 8.162,-9.502 10.302,-23.245 22.673,-28.821 6.386,-2.878 15.346,-2.938 21.892,-0.427 5.722,2.195 8.261,6.628 10.62,11.859 22.608,-9.782 57.048,-1.734 59.697,25.584 5.167,53.295 -76.221,76.398 -116.633,80.966 6.039,45.388 10.76,87.932 5.965,133.865 -3.985,38.174 -11.635,69.46 -40.745,96.687 18.343,41.602 33.313,16.935 65.748,33.943 6.768,3.747 12.751,12.593 13.958,20.089 9.221,57.28 -73.489,77.83 -112.198,50.068 -24.468,-17.549 -33.488,-37.604 -39.262,-64.746 -21.643,8.341 -52.725,12.076 -75.691,11.506 -25.056,-0.739 -43.811,-4.912 -66.888,-14.335 -1.391,16.108 -4.36,30.786 -11.585,45.439 -17.892,36.285 -60.45,40.654 -93.761003,23.683 -12.805,-6.525 -25.531,-18.62 -30.088,-32.696 -3.155,-9.745 -1.804,-22.148 3.065,-31.093 6.276,-11.725 19.594,-19.177 32.63,-20.432 7.828003,-0.753 14.730003,-0.194 22.627003,-2.443 11.211,-3.193 14.747,-14.601 20.023,-24.458 -5.724,-8.122 -13.227,-19.883 -17.066,-29.102 -25.635003,-61.56 -17.559,-132.312 -9.167,-196.149 -24.252003,-5.083 -43.520003,-11.204 -65.959003,-23.232 -28.615,-15.338 -56.78,-46.444 -39.1349998,-80.657 9.8159998,-19.035 37.1609998,-20.633 54.5389998,-10.57 q 0.558,-0.926 1.143,-1.834 c 13.348,-20.618 41.791003,-3.432 44.456003,16.454 1.201,8.968 7.132,18.204 14.902,23.298 2.122,-12.58 3.301,-25.06 4.83,-37.746 6.356,-52.739 8.525,-107.016 21.47,-158.68 8.569,-34.197 23.079,-70.466 49.918,-94.487 6.351,-5.685 13.269,-9.722 20.559,-14.021 -16.05,-3.088 -30.052,-5.778 -43.968,-15.052 0.345,-2.442 0.794,-3.881 1.462,-6.226 -3.17,-1.717 -9.846,-5.204 -12.616,-7.457 -7.647,-6.477 -13.929,-15.785 -17.668,-25.026 -2.793,-6.901 3.397,-8.311 8.448,-9.78 -5.164,-10.337 -27.821,-44.6 -26.512,-53.774 2.025,-3.443 8.159,-3.29 11.768,-3.805 17.927,-2.557 34.788,-0.055 51.942,5.264 -0.004,-3.678 -0.311,-8.97 5.279,-8.266 14.457,1.82 30.729,11.734 40.835,21.843 -0.148,-16.223 1.87,-32.113 9.346,-46.694 2.161,-4.216 5.738,-11.847 10.709,-13.144 1.455,-0.38 3.132,0.826 4.416,1.585 8.062,-15.255 19.666,-27.576 35.26,-35.14"
     id="path1" />
  <path
     fill="#fef8c2"
     d="m 240.37117,197.261 c 2.878,-1.097 17.492,-0.753 21.067,-0.72 6.736,0.06 13.478,0.037 20.198,0.47 5.676,0.313 12.567,0.515 18.014,1.752 5.698,0.871 9.493,1.644 15.088,2.926 5.629,1.228 15.658,3.923 20.151,7.676 28.669,15.485 43.354,41.426 52.325,71.809 8.293,28.085 12.634,56.997 15.905,86.055 0.293,2.604 0.664,5.356 0.812,7.962 1.184,3.463 4.658,31.73 5.274,36.826 a 1669,1669 0 0 0 8.687,57.198 c 1.182,6.938 4.991,25.994 5.288,31.964 -1.334,1.711 -3.821,1.408 -5.88,1.421 -2.201,2.453 -2.902,4.443 -4.377,7.312 -1.825,3.039 -2.254,5.248 -2.716,8.767 -0.743,12.456 -0.419,28.174 5.841,39.375 1.932,4.603 5.162,10.198 8.874,13.537 1.121,1.759 2.251,3.388 3.104,5.29 2.459,1.057 3.617,1.383 6.223,2.057 2.974,9.119 3.949,23.22 5.165,33.037 5.491,44.316 6.792,90.339 -4.836,133.816 -4.988,18.647 -12.341,35.752 -25.982,49.858 -2.729,2.823 -8.903,6.525 -10.758,9.547 -2.353,0.619 -9.818,0.356 -12.689,0.316 -6.304,0.616 -13.885,1.173 -19.98,2.341 -5.049,1.533 -22,6.715 -23.918,12.092 0.74,1.172 1.012,1.433 1.474,2.745 0.514,4.405 0.962,10.113 0.564,14.525 l -2.541,-1.099 c -6.427,3.234 -20.273,8.14 -27.435,8.83 a 358,358 0 0 1 -13.952,2.78 c -4.284,1.383 -18.228,2.951 -22.853,2.812 l -6.27,0.068 c -4.952,-0.008 -16.28,0.291 -20.608,-0.311 -2.716,-0.573 -6.973,-1.022 -9.839,-1.401 -5.971,-0.532 -20.582,-3.36 -25.7,-6.095 a 158.3,158.3 0 0 1 -45.376,-22.643 c -33.328,-24.265 -48.091,-58.884 -54.363,-98.356 a 362.7,362.7 0 0 1 -3.458,-73.731 c 2.312,-44.329 12.14,-86.775 16.749,-130.869 2.964,-27.211 6.38,-52.994 9.041,-80.367 6.615,-68.051 9.861,-144.465 49.914,-202.678 11.843,-17.213 32.798,-33.692 53.773,-36.894"
     id="path2" />
  <path
     fill="#fef8c2"
     d="m 214.09117,842.799 a 158.3,158.3 0 0 1 -45.376,-22.643 c -33.328,-24.265 -48.091,-58.884 -54.363,-98.356 a 362.7,362.7 0 0 1 -3.458,-73.731 c 2.312,-44.329 12.14,-86.775 16.749,-130.869 2.964,-27.211 6.38,-52.994 9.041,-80.367 6.615,-68.051 9.861,-144.465 49.914,-202.678 11.843,-17.213 32.798,-33.692 53.773,-36.894 l 0.709,0.613 c -1.264,3.63 -9.226,8.058 -11.922,11.323 -2.137,2.587 -1.22,4.288 -2.718,6.722 -2.361,3.834 -5.633,6.344 -7.931,10.411 0.73,13.509 -1.289,10.408 -5.085,21.509 l 3.418,9.904 c -0.775,1.593 -3.008,5.947 -3.114,7.457 -0.587,8.418 1.396,16.784 1.03,25.327 -0.261,6.098 -3.789,13.812 -3.716,19.328 0.082,6.152 2.45,11.277 1.81,18.064 -0.431,4.584 -3.857,10.063 -3.727,13.083 0.648,15.039 3.381,14.377 -1.554,29.958 l 3.134,10.037 c -2.635,8.49 -1.618,10.711 -1.345,19.3 0.132,4.131 -1.728,9.831 -1.416,14.169 -0.048,2.698 0.409,7.986 0.072,10.134 0.593,2.748 1.391,5.753 1.178,8.542 4.833,18.331 6.591,36.933 -5.63,52.921 3.492,13.724 -0.703,14.183 -0.842,25.28 -6.347,5.713 -2.284,12.233 0.5,19.051 8.684,13.389 11.452,16.874 25.487,25.176 -0.672,9.386 -2.641,12.474 -4.296,21.384 -0.786,4.231 1.73,12.11 0.883,17.141 -0.889,5.274 -3.026,9.541 -3.094,14.724 0.022,4.409 2.101,8.878 2.523,13.241 0.273,2.822 -1.381,12.204 -0.353,14.077 5.253,9.566 2.749,11.75 2.012,21.686 -0.388,5.244 2.468,13.653 2.014,19.265 0.801,6.902 -4.688,18.19 -3.499,24.436 1.32,6.935 2.768,16.912 5.506,23.192 1.528,3.508 4.318,5.781 6.203,10.701 -0.933,3.797 -2.519,9.024 -2.272,12.852 0.285,4.432 4.381,8.669 5.608,12.853 2.594,15.081 -3.158,13.394 4.996,28.639 -2.299,16.382 6.635,13.915 7.627,24.531 0.101,1.074 0.37,1.628 1.133,2.361 l 0.02,0.299 c -4.829,3.101 -14.21,3.678 -19.929,5.525 -0.049,6.911 3.937,9.898 8.655,14.187 l 1.6,5.503 c 2.357,1.992 6.479,4.998 7.914,7.391 l -0.242,0.562 -2.088,0.175 c -2.716,-0.573 -6.973,-1.022 -9.839,-1.401 -5.971,-0.532 -20.582,-3.36 -25.7,-6.095"
     id="path3" />
  <path
     fill="#fef8c2"
     d="m 158.32417,532.409 c 5.968,-14.964 2.139,-13.622 0.491,-28.636 -0.731,-6.461 3.238,-12.626 3.988,-18.794 1.114,-9.154 -2.186,-17.795 4.749,-25.553 0.908,3.019 1.723,6.018 2.996,8.902 l 1.123,-0.794 2.754,2.159 c 1.104,5.09 2.082,8.388 4.074,13.141 1.739,1.821 3.679,3.997 5.605,5.565 4.664,0.588 10.561,1.015 15.314,1.249 1.146,-1.047 2.908,-2.767 4.146,-3.585 3.492,13.724 -0.703,14.183 -0.842,25.28 -6.347,5.713 -2.284,12.233 0.5,19.051 8.684,13.389 11.452,16.874 25.487,25.176 -0.672,9.386 -2.641,12.474 -4.296,21.384 -0.786,4.231 1.73,12.11 0.883,17.141 -0.889,5.274 -3.026,9.541 -3.094,14.724 0.022,4.409 2.101,8.878 2.523,13.241 0.273,2.822 -1.381,12.204 -0.353,14.077 5.253,9.566 2.749,11.75 2.012,21.686 -0.388,5.244 2.468,13.653 2.014,19.265 0.801,6.902 -4.688,18.19 -3.499,24.436 1.32,6.935 2.768,16.912 5.506,23.192 1.528,3.508 4.318,5.781 6.203,10.701 -0.933,3.797 -2.519,9.024 -2.272,12.852 0.285,4.432 4.381,8.669 5.608,12.853 2.594,15.081 -3.158,13.394 4.996,28.639 -2.299,16.382 6.635,13.915 7.627,24.531 0.101,1.074 0.37,1.628 1.133,2.361 l 0.02,0.299 c -4.829,3.101 -14.21,3.678 -19.929,5.525 -0.129,-3.298 -0.707,-4.36 -2.737,-6.967 l 0.041,0.443 c 0.196,1.948 0.438,3.009 0.897,4.909 -2.295,2.051 -16.142,1.669 -20.45,2.287 -7.212,-3.816 -6.675,-7.777 -11.658,-13.594 -1.644,-1.92 -6.428,-3.735 -7.893,-5.338 -5.238,-5.732 -11.907,-14.55 -16.175,-20.902 l -0.048,-7.245 c -1.893,-3.212 -4.918,-7.207 -7.138,-10.319 -0.088,-2.814 -0.196,-7.094 -0.733,-9.799 -1.94,-9.777 -4.283,-11.779 -3.491,-21.942 -5.91,-10.308 -5.155,-11.509 -3.035,-22.819 l -4.883,-9.983 3.759,-10.689 c -8.566,-16.04 -8.821,-14.653 -3.827,-32.348 -1.203,-3.252 -2.827,-7.301 -3.404,-10.636 -1.219,-7.04 3.038,-13.294 2.271,-20.699 -0.434,-4.181 -3.158,-8.559 -2.744,-12.393 0.442,-4.096 3.633,-8.951 3.56,-13.295 -0.069,-4.154 -2.917,-9.178 -2.257,-13.346 0.933,-5.897 4.445,-10.139 5.778,-16.246 1.116,-5.283 -1.76,-10.306 -2.047,-15.498 -0.217,-3.92 1.228,-7.758 2.334,-11.53 1.321,-4.511 -0.144,-7.84 -1.587,-12.119"
     id="path4" />
  <path
     fill="#99d172"
     d="m 203.22217,530.394 c 8.684,13.389 11.452,16.874 25.487,25.176 -0.672,9.386 -2.641,12.474 -4.296,21.384 -0.786,4.231 1.73,12.11 0.883,17.141 -0.889,5.274 -3.026,9.541 -3.094,14.724 0.022,4.409 2.101,8.878 2.523,13.241 0.273,2.822 -1.381,12.204 -0.353,14.077 5.253,9.566 2.749,11.75 2.012,21.686 -0.388,5.244 2.468,13.653 2.014,19.265 0.801,6.902 -4.688,18.19 -3.499,24.436 1.32,6.935 2.768,16.912 5.506,23.192 1.528,3.508 4.318,5.781 6.203,10.701 -0.933,3.797 -2.519,9.024 -2.272,12.852 0.285,4.432 4.381,8.669 5.608,12.853 2.594,15.081 -3.158,13.394 4.996,28.639 -2.299,16.382 6.635,13.915 7.627,24.531 0.101,1.074 0.37,1.628 1.133,2.361 l 0.02,0.299 c -4.829,3.101 -14.21,3.678 -19.929,5.525 -0.129,-3.298 -0.707,-4.36 -2.737,-6.967 -2.419,-5.245 -6.48,-6.766 -9.013,-11.596 -1.05,-2.004 -1.294,-6.918 -2.215,-8.91 -1.457,-3.149 -4.971,-5.988 -6.487,-9.338 -1.727,-3.814 -0.564,-9.451 -1.76,-13.17 -1.483,-4.61 -3.745,-8.607 -5.438,-13.409 0.746,-3.728 1.705,-7.549 2.584,-11.261 l -5.315,-8.936 2.649,-9.018 -4.135,-9.094 c 2.659,-15.146 -2.145,-10.64 -3.712,-23.711 -0.718,-5.992 1.961,-18.865 1.157,-25.617 -0.739,-6.204 -3.944,-11.473 -3.578,-17.801 0.346,-5.966 4.551,-11.472 4.619,-17.461 0.066,-5.81 -3.2,-11.61 -4.049,-17.342 -0.693,-4.69 1.636,-9.386 1.584,-14.072 -0.049,-4.461 -2.388,-10.006 -2.107,-14.447 0.15,-2.373 1.991,-7.651 2.794,-10.155 -3.282,-11.396 -0.167,-11.321 0.448,-22.393 0.156,-2.824 -2.515,-9.766 -1.642,-13.565 1.094,-4.756 3.732,-9.333 5.784,-13.82"
     id="path5" />
  <path
     fill="#2fb361"
     d="m 170.54817,468.328 1.123,-0.794 2.754,2.159 c 1.104,5.09 2.082,8.388 4.074,13.141 -3.723,-2.861 -6.148,-10.036 -7.951,-14.506"
     id="path6" />
  <path
     fill="#f0e9aa"
     d="m 178.36617,496.661 c 12.584,-1.736 20.191,9.952 5.931,15.992 -10.965,2.265 -20.503,-9.472 -5.931,-15.992"
     id="path7" />
  <defs
     id="defs8">
    <linearGradient
       id="a"
       x1="374.42599"
       x2="528.88702"
       y1="558.414"
       y2="581.53998"
       gradientUnits="userSpaceOnUse"
       gradientTransform="translate(-246.72583,-30.448)">
      <stop
         offset="0"
         stop-color="#b3db6f"
         id="stop7" />
      <stop
         offset="1"
         stop-color="#81c674"
         id="stop8" />
    </linearGradient>
  </defs>
  <path
     fill="url(#a)"
     d="m 126.89717,618.289 c 1.315,-4.509 5.033,-16.195 3.845,-19.982 -4.172,-13.301 2.655,-19.343 4.506,-31.659 0.829,-5.514 -0.45,-12.157 -0.51,-17.779 -0.069,-6.51 0.44,-13.578 0.248,-20.162 0.075,-3.036 3.523,-10.205 2.992,-12.952 -2.317,-11.984 -1.569,-17.611 2.732,-29.034 0.701,-3.596 -0.858,-9.398 -0.214,-12.788 1.65,-8.682 4.239,-15.379 4.46,-24.368 0.373,-15.165 2.544,-30.638 3.63,-45.693 0.544,-7.54 -3.069,-12.965 1.71,-20.316 3.831,-11.394 3.889,-25.726 5.954,-37.232 6.68,-37.211 18.099,-83.534 42.456,-113.276 -1.095,3.355 -2.443,8.003 -3.771,11.193 -3.676,8.831 -6.207,10.145 -5.064,19.757 -9.251,14.239 -8.659,23.962 -9.051,40.565 -0.089,3.766 -1.996,7.987 -3.416,11.491 0.738,3.452 1.282,6.276 1.22,9.889 -0.079,6.395 -4.93,13.491 -5.343,19.57 -0.618,9.105 -0.506,18.751 -0.695,27.896 -0.053,2.538 -1.714,6.607 -2.604,9.042 l 2.006,6.84 c -2.52,9.269 -1.505,20.078 -3.062,29.655 -0.26,1.599 0.071,2.587 1.094,3.774 -0.133,1.332 -0.2,2.408 -0.48,3.723 -2.746,4.282 -2.809,5.828 -3.527,10.742 -0.535,3.993 1.497,5.609 1.705,9.131 0.254,4.286 -0.984,8.694 -0.166,13.11 -6.935,7.758 -3.635,16.399 -4.749,25.553 -0.75,6.168 -4.719,12.333 -3.988,18.794 1.648,15.014 5.477,13.672 -0.491,28.636 1.443,4.279 2.908,7.608 1.587,12.119 -1.106,3.772 -2.551,7.61 -2.334,11.53 0.287,5.192 3.163,10.215 2.047,15.498 -1.333,6.107 -4.845,10.349 -5.778,16.246 -0.66,4.168 2.188,9.192 2.257,13.346 0.073,4.344 -3.118,9.199 -3.56,13.295 -0.414,3.834 2.31,8.212 2.744,12.393 0.767,7.405 -3.49,13.659 -2.271,20.699 0.577,3.335 2.201,7.384 3.404,10.636 -4.994,17.695 -4.739,16.308 3.827,32.348 l -3.759,10.689 4.883,9.983 c -2.12,11.31 -2.875,12.511 3.035,22.819 -0.792,10.163 1.551,12.165 3.491,21.942 0.537,2.705 0.645,6.985 0.733,9.799 2.22,3.112 5.245,7.107 7.138,10.319 l 0.048,7.245 c 4.268,6.352 10.937,15.17 16.175,20.902 1.465,1.603 6.249,3.418 7.893,5.338 4.983,5.817 4.446,9.778 11.658,13.594 4.308,-0.618 18.155,-0.236 20.45,-2.287 -0.459,-1.9 -0.701,-2.961 -0.897,-4.909 l -0.041,-0.443 c 2.03,2.607 2.608,3.669 2.737,6.967 -0.049,6.911 3.937,9.898 8.655,14.187 l 1.6,5.503 c 2.357,1.992 6.479,4.998 7.914,7.391 l -0.242,0.562 -2.088,0.175 c -2.716,-0.573 -6.973,-1.022 -9.839,-1.401 -5.971,-0.532 -20.582,-3.36 -25.7,-6.095 -4.437,-5.341 -20.071,-11.647 -25.438,-18.006 -5.798,-6.723 -11.723,-14.134 -17.399,-20.857 -7.441,-8.814 -15.877,-16.013 -20.233,-26.938 -0.776,-1.948 -3.377,-4.439 -4.967,-6.04 -0.739,-13.528 -4.953,-14.186 -8.091,-26.196 -1.125,-4.306 0.19,-13.412 -0.988,-19.131 -1.3,-6.316 -6.029,-11.14 -6.436,-16.842 -0.76,-5.897 3.416,-16.513 2.271,-21.876 -2.886,-13.524 -4.617,-21.245 -3.958,-35.118 -1.805,-3.548 -2.696,-5.455 -4.023,-9.184 3.405,-12.198 7.135,-11.521 2.068,-24.322"
     id="path8"
     style="fill:url(#a)" />
  <path
     fill="#f0e9aa"
     d="m 231.05417,815.51 c 2.03,2.607 2.608,3.669 2.737,6.967 -0.049,6.911 3.937,9.898 8.655,14.187 l 1.6,5.503 c 2.357,1.992 6.479,4.998 7.914,7.391 l -0.242,0.562 -2.088,0.175 c -2.716,-0.573 -6.973,-1.022 -9.839,-1.401 -3.603,-6.101 -8.931,-8.087 -14.078,-12.628 -4.81,-4.242 -9.074,-9.222 -14.171,-13.117 4.308,-0.618 18.155,-0.236 20.45,-2.287 -0.459,-1.9 -0.701,-2.961 -0.897,-4.909 z"
     id="path9" />
  <path
     fill="#fefefe"
     d="m 174.42517,469.693 c -0.043,-11.588 2.696,-35.356 19.107,-37.008 4.73,-0.476 9.77,4.559 12.917,7.83 l -2.096,-6.504 c 1.174,-1.395 3.126,-0.939 4.841,-0.869 4.833,18.331 6.591,36.933 -5.63,52.921 -1.238,0.818 -3,2.538 -4.146,3.585 -4.753,-0.234 -10.65,-0.661 -15.314,-1.249 -1.926,-1.568 -3.866,-3.744 -5.605,-5.565 -1.992,-4.753 -2.97,-8.051 -4.074,-13.141"
     id="path10" />
  <path
     fill="#074e2d"
     d="m 195.34217,444.66 c 15.326,-0.906 12.128,15.152 9.963,25.361 -1.463,6.899 -5.541,13.524 -11.783,17.078 -2.898,-1.054 -6.034,-2.463 -7.745,-5.096 -8.55,-13.165 -3.669,-30.242 9.565,-37.343"
     id="path11" />
  <path
     fill="#fefefe"
     d="m 198.65417,449.819 c 7.442,2.153 6.066,7.973 1.528,12.44 -8.142,-2.604 -6.025,-7.561 -1.528,-12.44"
     id="path12" />
  <path
     fill="#074e2d"
     d="m 197.33617,410.118 2.893,2.632 c 4.067,4.211 5.213,6.591 7.787,11.85 0.593,2.748 1.391,5.753 1.178,8.542 -1.715,-0.07 -3.667,-0.526 -4.841,0.869 l 2.096,6.504 c -3.147,-3.271 -8.187,-8.306 -12.917,-7.83 -16.411,1.652 -19.15,25.42 -19.107,37.008 l -2.754,-2.159 -1.123,0.794 c -1.273,-2.884 -2.088,-5.883 -2.996,-8.902 -0.818,-4.416 0.42,-8.824 0.166,-13.11 -0.208,-3.522 -2.24,-5.138 -1.705,-9.131 4.666,4.025 5.565,1.361 11.154,0.426 l 1.58,-1.881 c 1.352,-1.12 1.302,-1.217 2.106,-2.709 l -0.56,-0.258 c 0.094,-7.566 -4.586,-14.004 -0.078,-21.606 5.059,2.005 6.873,7.234 9.279,12.057 a 313,313 0 0 0 4.506,-4.64 c 1.168,0.739 2.515,0.993 3.211,1.445 0.167,-2.957 -0.009,-6.677 0.125,-9.901"
     id="path13" />
  <path
     fill="#55c775"
     d="m 166.01317,437.185 c 4.666,4.025 5.565,1.361 11.154,0.426 -4.965,11.236 -7.558,17.641 -5.496,29.923 l -1.123,0.794 c -1.273,-2.884 -2.088,-5.883 -2.996,-8.902 -0.818,-4.416 0.42,-8.824 0.166,-13.11 -0.208,-3.522 -2.24,-5.138 -1.705,-9.131"
     id="path14" />
  <path
     fill="#55c775"
     d="m 200.22917,412.75 c 4.067,4.211 5.213,6.591 7.787,11.85 0.593,2.748 1.391,5.753 1.178,8.542 -1.715,-0.07 -3.667,-0.526 -4.841,0.869 l -0.132,-0.506 c -0.415,-0.415 -2.276,-2.311 -2.394,-2.649 -1.486,-4.286 -1.41,-13.524 -1.598,-18.106"
     id="path15" />
  <path
     fill="#55c775"
     d="m 180.29317,432.763 c 0.094,-7.566 -4.586,-14.004 -0.078,-21.606 0.99,5.152 4.975,12.408 6.795,17.868 -1.686,1.036 -4.773,2.788 -6.157,3.996 z"
     id="path16" />
  <path
     fill="#99d172"
     d="m 194.00017,418.574 c 1.168,0.739 2.515,0.993 3.211,1.445 l 0.637,8.631 c -2.472,-0.198 -5.266,-0.054 -7.063,-1.497 -1.465,-2.251 -0.649,-2.262 -1.291,-3.939 a 313,313 0 0 0 4.506,-4.64"
     id="path17" />
  <path
     fill="#fef8c2"
     d="m 166.01317,437.185 c 0.718,-4.914 0.781,-6.46 3.527,-10.742 2.688,4.09 4.467,7.457 9.207,9.287 l -1.58,1.881 c -5.589,0.935 -6.488,3.599 -11.154,-0.426"
     id="path18" />
  <path
     fill="#126f3d"
     d="m 170.02017,422.72 c 4.473,3.475 4.969,7.295 10.273,10.043 l 0.56,0.258 c -0.804,1.492 -0.754,1.589 -2.106,2.709 -4.74,-1.83 -6.519,-5.197 -9.207,-9.287 0.28,-1.315 0.347,-2.391 0.48,-3.723"
     id="path19" />
  <path
     fill="#55c775"
     d="m 194.00017,418.574 c -0.793,-2.685 -2.957,-7.805 -0.408,-9.656 1.644,-0.014 2.279,0.468 3.744,1.2 -0.134,3.224 0.042,6.944 -0.125,9.901 -0.696,-0.452 -2.043,-0.706 -3.211,-1.445"
     id="path20" />
  <path
     fill="#99d172"
     d="m 314.73817,201.689 c 5.629,1.228 15.658,3.923 20.151,7.676 28.669,15.485 43.354,41.426 52.325,71.809 8.293,28.085 12.634,56.997 15.905,86.055 0.293,2.604 0.664,5.356 0.812,7.962 1.184,3.463 4.658,31.73 5.274,36.826 a 1669,1669 0 0 0 8.687,57.198 c 1.182,6.938 4.991,25.994 5.288,31.964 -1.334,1.711 -3.821,1.408 -5.88,1.421 -2.201,2.453 -2.902,4.443 -4.377,7.312 -1.825,3.039 -2.254,5.248 -2.716,8.767 -0.743,12.456 -0.419,28.174 5.841,39.375 1.932,4.603 5.162,10.198 8.874,13.537 1.121,1.759 2.251,3.388 3.104,5.29 2.459,1.057 3.617,1.383 6.223,2.057 2.974,9.119 3.949,23.22 5.165,33.037 5.491,44.316 6.792,90.339 -4.836,133.816 -4.988,18.647 -12.341,35.752 -25.982,49.858 -2.729,2.823 -8.903,6.525 -10.758,9.547 -2.353,0.619 -9.818,0.356 -12.689,0.316 -6.304,0.616 -13.885,1.173 -19.98,2.341 -5.049,1.533 -22,6.715 -23.918,12.092 0.74,1.172 1.012,1.433 1.474,2.745 0.514,4.405 0.962,10.113 0.564,14.525 l -2.541,-1.099 c -6.427,3.234 -20.273,8.14 -27.435,8.83 2.682,-6.736 11.145,-10.267 15.926,-15.545 3.213,-3.548 4.906,-7.283 7.097,-11.506 l -0.526,-6.399 c 1.685,-3.126 4.868,-6.676 6.932,-10.069 1.308,-2.149 4.197,-8.236 5.354,-9.719 3.151,-4.04 9.354,-7.418 11.716,-12.588 2.191,-4.794 1.425,-10.84 3.047,-15.6 1.485,-4.362 4.918,-8.565 5.857,-13.393 1.434,-7.378 -2.216,-13.558 -1.944,-20.455 0.164,-4.162 2.809,-10.422 4.369,-14.51 l -3.78,-10.248 c 1.963,-4.307 5.815,-9.294 7.01,-13.646 2.046,-7.449 -5.921,-13.939 -4.439,-22.396 0.594,-3.39 1.127,-4.662 2.254,-7.87 -0.452,-1.367 -1.928,-5.696 -1.86,-6.834 0.749,-12.676 6.09,-11.484 1.506,-24.913 1.153,-3.794 3.872,-11.675 3.297,-15.245 -0.733,-4.548 -2.416,-8.803 -2.244,-13.768 0.236,-6.865 4.474,-12.462 4.43,-19.542 -0.045,-7.323 -4.085,-13.302 -4.864,-20.438 -0.648,-5.938 2.612,-11.956 2.75,-17.937 0.385,-2.234 -2.191,-9.634 -1.83,-11.263 2.062,-9.303 0.978,-15.051 -0.587,-24.047 -0.593,-3.406 4.234,-11.856 4.776,-15.757 0.715,-5.144 -1.599,-8.918 -2.137,-13.906 -0.219,-2.5 1.671,-7.357 1.287,-9.981 -0.827,-5.643 -1.77,-13.794 -3.098,-19.158 -3.111,-12.573 -5.762,-15.114 -3.204,-28.203 l -4.569,-8.113 c 6.244,-20.43 -1.863,-17.68 -4.216,-36.15 -0.804,-6.314 2.965,-15.437 3.077,-21.992 0.428,-5.592 -4.525,-12.202 -4.904,-17.269 -0.987,-13.202 0.845,-17.536 -4.943,-30.018 0.602,-4.049 1.189,-7.091 2.107,-11.085 -2.755,-7.1 -3.385,-8.011 -3.205,-15.681 -2.438,-4.267 -5.705,-7.824 -7.555,-12.456 -3.261,-8.161 -1.529,-17.646 -4.235,-26.171 -1.765,-5.563 -22.487,-33.71 -27.227,-39.386"
     id="path21" />
  <path
     fill="#f0e9aa"
     d="m 334.88917,209.365 c 28.669,15.485 43.354,41.426 52.325,71.809 8.293,28.085 12.634,56.997 15.905,86.055 0.293,2.604 0.664,5.356 0.812,7.962 1.184,3.463 4.658,31.73 5.274,36.826 a 1669,1669 0 0 0 8.687,57.198 c 1.182,6.938 4.991,25.994 5.288,31.964 -1.334,1.711 -3.821,1.408 -5.88,1.421 -2.201,2.453 -2.902,4.443 -4.377,7.312 -1.825,3.039 -2.254,5.248 -2.716,8.767 -0.743,12.456 -0.419,28.174 5.841,39.375 1.932,4.603 5.162,10.198 8.874,13.537 1.121,1.759 2.251,3.388 3.104,5.29 2.459,1.057 3.617,1.383 6.223,2.057 2.974,9.119 3.949,23.22 5.165,33.037 5.491,44.316 6.792,90.339 -4.836,133.816 -4.988,18.647 -12.341,35.752 -25.982,49.858 -2.729,2.823 -8.903,6.525 -10.758,9.547 -2.353,0.619 -9.818,0.356 -12.689,0.316 -6.304,0.616 -13.885,1.173 -19.98,2.341 -0.249,-0.765 -0.413,-0.802 0.145,-1.769 1.746,-3.255 4.268,-6.37 6.046,-9.575 3.449,-6.217 6.477,-12.241 10.83,-17.92 1.495,-1.952 1.261,-6.651 2.325,-9.069 1.488,-3.381 3.778,-6.445 5.041,-9.922 1.171,-3.959 1.09,-10.739 3.142,-14.508 2.175,-3.995 5.563,-6.862 6.367,-11.69 0.6,-3.608 -1.56,-8.639 -1.197,-11.892 0.765,-6.862 3.181,-13.261 3.67,-20.313 0.293,-4.222 -2.036,-10.658 -1.193,-14.137 1,-4.123 3.621,-7.889 5.062,-12.738 -0.927,-4.075 -4.394,-9.575 -4.419,-11.99 -0.158,-15.438 6.65,-17.134 0.051,-33.471 3.412,-14.061 -0.892,-22.878 -0.35,-35.955 0.634,-15.316 5.675,-17.315 -0.24,-33.351 0.375,-2.658 1.142,-6.074 1.679,-8.776 -3.215,-8.507 -1.399,-8.71 -1.095,-17.719 0.08,-2.348 -2.153,-6.216 -2.13,-8.769 -0.194,-2.779 0.902,-7.128 0.584,-9.755 -1.278,-10.576 0.836,-20.473 1.013,-30.929 -0.401,-3.513 -2.881,-7.041 -3.146,-10.549 -0.936,-12.396 0.853,-23.122 -3.847,-34.969 -0.519,-1.31 0.335,-13.611 0.179,-16.268 -0.427,-7.303 -2.348,-13.996 -1.146,-21.205 -3.938,-9.125 -5.247,-13.822 -5.718,-23.86 -0.25,-5.344 -1.408,-10.347 -0.584,-16.113 0.175,-1.221 -2.455,-6.478 -2.513,-8.541 -0.1,-3.618 0.347,-7.465 -0.096,-11.042 -0.718,-3.01 -2.275,-5.204 -2.764,-8.755 -1.165,-8.44 -0.317,-18.102 -1.181,-26.267 -1.306,-5.652 -1.879,-13.061 -3.931,-18.434 -3.131,-8.195 -5.553,-16.129 -7.844,-24.569 -0.806,-2.565 -3.916,-6.825 -4.517,-9.153 -2.567,-9.933 -4.883,-16.044 -12.064,-23.524 -2.87,-2.99 -5.611,-7.906 -8.812,-11.156 -2.021,-2.051 -6.425,-6.743 -7.841,-9.164 z"
     id="path22" />
  <path
     fill="#55c775"
     d="m 428.02617,576.881 c 2.459,1.057 3.617,1.383 6.223,2.057 2.974,9.119 3.949,23.22 5.165,33.037 5.491,44.316 6.792,90.339 -4.836,133.816 -4.988,18.647 -12.341,35.752 -25.982,49.858 -2.729,2.823 -8.903,6.525 -10.758,9.547 -2.353,0.619 -9.818,0.356 -12.689,0.316 4.764,-4.689 10.664,-12.457 13.241,-18.578 3.648,-8.665 7.438,-13.138 13.567,-19.751 1.13,-1.219 2.759,-12.366 3.848,-14.932 2.127,-5.014 5.229,-8.279 7.963,-12.827 0.211,-5.486 -0.496,-8.103 -1.778,-13.36 1.647,-3.884 3.937,-7.059 5.339,-11.35 1.662,-4.665 1.688,-10.047 2.523,-14.878 1.327,-7.688 3.703,-15.504 2.389,-23.372 -1.264,-7.568 0.65,-11.594 3.445,-18.332 -3.37,-12.209 -3.62,-16.351 -1.348,-28.668 -1.069,-3.072 -2.505,-6.087 -3.837,-9.064 0.803,-4.814 1.451,-9.681 0.859,-14.554 -1.296,-10.668 -4.395,-18.041 -3.334,-28.965"
     id="path23" />
  <path
     fill="#99d172"
     d="m 406.31317,410.646 c 1.08,0.566 1.733,0.961 2.892,1.371 a 1669,1669 0 0 0 8.687,57.198 c 1.182,6.938 4.991,25.994 5.288,31.964 -1.334,1.711 -3.821,1.408 -5.88,1.421 -0.274,-4.688 -0.717,-15.86 -1.845,-20.073 -4.696,-17.549 -3.42,-34.723 -6.286,-52.315 -1.126,-6.915 -2.203,-12.603 -2.856,-19.566"
     id="path24" />
  <path
     fill="#55c775"
     d="m 403.93117,375.191 c 1.184,3.463 4.658,31.73 5.274,36.826 -1.159,-0.41 -1.812,-0.805 -2.892,-1.371 -1.708,-7.45 -3.603,-15.136 -3.236,-22.804 0.197,-4.118 0.81,-7.909 0.853,-12.061 z"
     id="path25" />
  <path
     fill="#009e48"
     d="m 341.25117,819.945 c 0.74,1.172 1.012,1.433 1.474,2.745 0.514,4.405 0.962,10.113 0.564,14.525 l -2.541,-1.099 c -2.089,-3.746 -0.627,-12.08 0.503,-16.171"
     id="path26" />
  <path
     fill="#99d172"
     d="m 240.37117,197.261 c 2.878,-1.097 17.492,-0.753 21.067,-0.72 6.736,0.06 13.478,0.037 20.198,0.47 0.005,3.359 -0.116,4.463 -0.671,7.761 l 3.444,7.288 c -2.543,8.673 -2.105,9.791 2.318,17.918 -1.006,3.065 -2.136,6.288 -2.916,9.402 l 3.269,9.184 c -3.598,16.373 -1.017,16.476 3.068,32.255 0.695,2.683 0.115,9.489 0.826,12.841 0.819,3.859 2.686,7.063 2.84,10.884 0.306,7.626 -5.221,13.558 -6.023,20.895 -0.871,8.786 4.89,15.757 5.187,24.504 0.269,7.905 -4.439,14.018 -6.21,21.224 -1.306,5.313 0.615,13.667 0.639,19.118 0.021,4.617 -0.554,9.024 -0.51,13.61 0.041,1.499 2.395,6.356 3.191,8.023 -0.82,3.237 -4.052,15.126 -3.267,17.341 4.355,12.275 -0.329,13.983 -3.647,25.658 1.59,3.042 3.201,6.243 4.853,9.235 l -2.002,5.077 -1.233,0.304 c 3.362,10.177 4.228,16.224 -0.75,26.318 a 82,82 0 0 1 -1.935,3.618 c 1.249,3.399 2.467,7.123 3.78,10.433 l 0.208,0.406 c 1.382,4.305 0.276,6.459 -0.915,10.837 1.398,3.192 2.22,4.644 4.028,7.625 -2.062,5.976 -2.739,7.809 -1.494,14.105 8.174,-4.552 14.396,-10.962 18.588,-19.342 3.203,-6.403 3.986,-9.99 11.596,-8.26 5.078,5.166 2.921,8.668 -0.335,14.285 -9.417,13.299 -12.754,17.206 -27.188,25.498 -19.795,8.642 -38.396,9.652 -58.68,1.736 a 101,101 0 0 1 -2.986,-1.222 c -14.035,-8.302 -16.803,-11.787 -25.487,-25.176 -2.784,-6.818 -6.847,-13.338 -0.5,-19.051 0.139,-11.097 4.334,-11.556 0.842,-25.28 12.221,-15.988 10.463,-34.59 5.63,-52.921 0.213,-2.789 -0.585,-5.794 -1.178,-8.542 0.337,-2.148 -0.12,-7.436 -0.072,-10.134 -0.312,-4.338 1.548,-10.038 1.416,-14.169 -0.273,-8.589 -1.29,-10.81 1.345,-19.3 l -3.134,-10.037 c 4.935,-15.581 2.202,-14.919 1.554,-29.958 -0.13,-3.02 3.296,-8.499 3.727,-13.083 0.64,-6.787 -1.728,-11.912 -1.81,-18.064 -0.073,-5.516 3.455,-13.23 3.716,-19.328 0.366,-8.543 -1.617,-16.909 -1.03,-25.327 0.106,-1.51 2.339,-5.864 3.114,-7.457 l -3.418,-9.904 c 3.796,-11.101 5.815,-8 5.085,-21.509 2.298,-4.067 5.57,-6.577 7.931,-10.411 1.498,-2.434 0.581,-4.135 2.718,-6.722 2.696,-3.265 10.658,-7.693 11.922,-11.323 z"
     id="path27" />
  <path
     fill="#fef8c2"
     d="m 261.43817,196.541 c 6.736,0.06 13.478,0.037 20.198,0.47 0.005,3.359 -0.116,4.463 -0.671,7.761 l 3.444,7.288 c -2.543,8.673 -2.105,9.791 2.318,17.918 -1.006,3.065 -2.136,6.288 -2.916,9.402 l 3.269,9.184 c -3.598,16.373 -1.017,16.476 3.068,32.255 0.695,2.683 0.115,9.489 0.826,12.841 0.819,3.859 2.686,7.063 2.84,10.884 0.306,7.626 -5.221,13.558 -6.023,20.895 -0.871,8.786 4.89,15.757 5.187,24.504 0.269,7.905 -4.439,14.018 -6.21,21.224 -1.306,5.313 0.615,13.667 0.639,19.118 0.021,4.617 -0.554,9.024 -0.51,13.61 0.041,1.499 2.395,6.356 3.191,8.023 -0.82,3.237 -4.052,15.126 -3.267,17.341 4.355,12.275 -0.329,13.983 -3.647,25.658 1.59,3.042 3.201,6.243 4.853,9.235 l -2.002,5.077 -1.233,0.304 c -3.056,-6.046 -10.57,-11.692 -17.01,-13.688 -11.449,-3.548 -21.948,-1.6 -32.38,3.606 -0.184,-5.563 -1.038,-11.652 -0.896,-17.157 0.067,-2.626 2.821,-7.517 2.435,-10.828 -0.416,-3.568 -2.947,-7.027 -3.36,-10.35 -0.545,-4.378 2.337,-9.376 2.162,-13.935 -0.127,-3.312 -2.642,-7.967 -2.695,-11.035 -0.085,-4.906 3.27,-9.62 3.909,-14.632 0.474,-4.678 -2.559,-9.171 -2.578,-13.798 -0.024,-6.243 2.45,-11.992 3.761,-18.045 1.342,-6.199 -0.376,-10.813 -2.4,-16.551 l 2.941,-8.514 c -2.248,-8.987 -2.628,-19.784 -2.689,-29.112 -0.033,-5.06 2.087,-10.655 3.704,-15.42 -4.1,-13.41 0.172,-12.243 2.891,-24.863 1.18,-5.482 -4.872,-14.42 -3.132,-20.61 1.564,-5.562 6.634,-9.544 9.766,-14.39 2.034,-3.148 3.352,-9.634 5.15,-12.282 3.632,-5.35 5.849,-4.049 7.067,-11.388"
     id="path28" />
  <path
     fill="#fef8c2"
     d="m 235.40217,459.451 c 10.432,-5.206 20.931,-7.154 32.38,-3.606 6.44,1.996 13.954,7.642 17.01,13.688 3.362,10.177 4.228,16.224 -0.75,26.318 a 82,82 0 0 1 -1.935,3.618 c 1.249,3.399 2.467,7.123 3.78,10.433 l 0.208,0.406 c 1.382,4.305 0.276,6.459 -0.915,10.837 1.398,3.192 2.22,4.644 4.028,7.625 -2.062,5.976 -2.739,7.809 -1.494,14.105 8.174,-4.552 14.396,-10.962 18.588,-19.342 3.203,-6.403 3.986,-9.99 11.596,-8.26 5.078,5.166 2.921,8.668 -0.335,14.285 -9.417,13.299 -12.754,17.206 -27.188,25.498 -19.795,8.642 -38.396,9.652 -58.68,1.736 a 101,101 0 0 1 -2.986,-1.222 c -14.035,-8.302 -16.803,-11.787 -25.487,-25.176 -2.784,-6.818 -6.847,-13.338 -0.5,-19.051 2.003,-0.156 4.551,-0.6 6.297,0.691 3.88,2.87 5.054,19.493 19.841,29.229 -0.445,-9.259 2.104,-17.602 0.552,-27.006 -0.56,-3.397 -0.194,-9.204 -0.007,-12.745 -1.293,-1.96 -2.679,-3.715 -3.789,-5.795 -7.598,-14.236 -0.885,-26.608 9.786,-36.266"
     id="path29" />
  <path
     fill="#074e2d"
     d="m 235.40217,459.451 c 10.432,-5.206 20.931,-7.154 32.38,-3.606 6.44,1.996 13.954,7.642 17.01,13.688 3.362,10.177 4.228,16.224 -0.75,26.318 a 82,82 0 0 1 -1.935,3.618 c -14.475,14.964 -33.601,14.584 -50.508,3.818 l -2.194,-1.775 c -1.293,-1.96 -2.679,-3.715 -3.789,-5.795 -7.598,-14.236 -0.885,-26.608 9.786,-36.266"
     id="path30" />
  <path
     fill="#55c775"
     d="m 245.70517,460.763 c 5.813,-1.703 11.55,-1.497 17.453,-0.559 21.127,4.425 28.386,28.269 9.66,40.808 -13.216,8.85 -34.539,7.071 -42.703,-7.643 -7.595,-13.45 1.518,-28.832 15.59,-32.606"
     id="path31" />
  <path
     fill="#99d172"
     d="m 245.70517,460.763 c 5.813,-1.703 11.55,-1.497 17.453,-0.559 l -0.388,0.621 c -3.108,0.446 -14.708,1.312 -17.065,-0.062"
     id="path32" />
  <path
     fill="#fefefe"
     d="m 246.40017,463.589 c 1.819,-0.064 5.157,-0.496 6.278,1.106 -3.198,4.9 -10.379,7.115 -13.627,11.493 -3.64,4.909 -2.841,12.219 -2.026,17.814 l -0.245,0.261 c -1.816,-0.572 -3.171,-2.829 -4.038,-4.471 -6.507,-12.316 3.225,-21.385 13.658,-26.203"
     id="path33" />
  <path
     fill="#e53c2d"
     d="m 202.72217,511.343 c 2.003,-0.156 4.551,-0.6 6.297,0.691 3.88,2.87 5.054,19.493 19.841,29.229 16.922,12.7 40.933,11.728 58.854,1.612 8.174,-4.552 14.396,-10.962 18.588,-19.342 3.203,-6.403 3.986,-9.99 11.596,-8.26 5.078,5.166 2.921,8.668 -0.335,14.285 -9.417,13.299 -12.754,17.206 -27.188,25.498 -19.795,8.642 -38.396,9.652 -58.68,1.736 a 101,101 0 0 1 -2.986,-1.222 c -14.035,-8.302 -16.803,-11.787 -25.487,-25.176 -2.784,-6.818 -6.847,-13.338 -0.5,-19.051"
     id="path34" />
  <path
     fill="#f0e9aa"
     d="m 282.10717,499.469 c 1.249,3.399 2.467,7.123 3.78,10.433 l 0.208,0.406 c -2.998,0.978 -8.754,6.137 -13.704,7.491 -10.342,2.83 -22.668,2.137 -32.094,-3.225 -4.962,-2.823 -7.343,-5.985 -8.698,-11.287 16.907,10.766 36.033,11.146 50.508,-3.818"
     id="path35" />
  <path
     fill="#fef8c2"
     d="m 290.37517,555.056 c 0.024,5.243 -0.663,10.382 -0.463,15.48 0.177,4.505 3.539,11.575 2.999,15.614 -1.866,13.973 -6.769,22.084 -1.851,36.534 2.294,6.738 -3.044,19.574 -5.554,26.408 1.024,3.549 1.824,6.154 3.157,9.585 -2.14,6.181 -4.525,12.409 -1.074,18.539 2.921,5.19 6.596,11.718 4.838,17.945 -1.189,4.21 -5.257,7.213 -5.66,12.151 -0.625,7.682 4.413,12.166 4.976,19.755 0.497,6.701 -5.444,13.523 -6.098,18.468 -1.499,11.332 2.15,13.633 -2.041,25.744 1.09,2.438 2.178,4.956 3.33,7.358 -0.358,3.104 -0.815,6.107 -0.087,9.154 1.933,8.09 1.625,8.806 -2.486,15.446 -0.05,2.803 -0.806,5.107 -2.801,7.18 -4.135,4.296 -20.119,6.757 -25.589,6.449 a 29,29 0 0 1 -2.271,-0.213 c -0.763,-0.733 -1.032,-1.287 -1.133,-2.361 -0.992,-10.616 -9.926,-8.149 -7.627,-24.531 -8.154,-15.245 -2.402,-13.558 -4.996,-28.639 -1.227,-4.184 -5.323,-8.421 -5.608,-12.853 -0.247,-3.828 1.339,-9.055 2.272,-12.852 -1.885,-4.92 -4.675,-7.193 -6.203,-10.701 -2.738,-6.28 -4.186,-16.257 -5.506,-23.192 -1.189,-6.246 4.3,-17.534 3.499,-24.436 0.454,-5.612 -2.402,-14.021 -2.014,-19.265 0.737,-9.936 3.241,-12.12 -2.012,-21.686 -1.028,-1.873 0.626,-11.255 0.353,-14.077 -0.422,-4.363 -2.501,-8.832 -2.523,-13.241 0.068,-5.183 2.205,-9.45 3.094,-14.724 0.847,-5.031 -1.669,-12.91 -0.883,-17.141 1.655,-8.91 3.624,-11.998 4.296,-21.384 q 1.483,0.635 2.986,1.222 c 20.284,7.916 38.885,6.906 58.68,-1.736"
     id="path36" />
  <path
     fill="#99d172"
     d="m 317.56317,529.558 c 1.965,4.202 1.28,6.265 0.082,10.85 l 4.431,10.504 c -5.434,17.93 -0.685,12.469 0.662,28.753 0.168,2.027 -3.468,17.663 -3.878,23.466 -1.04,14.711 4.585,17.089 -0.221,31.209 l 3.006,9.385 c -2.819,9.966 -1.455,10.04 -0.536,19.563 0.468,4.846 -6.168,11.95 -2.198,18.001 4.006,6.105 7.018,10.505 1.35,16.452 -3.044,3.194 0.444,10.455 1.971,14.133 -4.265,11.241 -4.502,11.709 -1.068,22.572 -2.714,9.213 -1.979,11.456 -3.212,20.654 -0.553,4.128 -5.05,11.37 -4.772,17.056 0.268,5.477 2.007,8.173 2.972,13.025 -1.291,3.368 -2.076,4.913 -3.801,8.084 1.008,2.247 2.011,4.576 3.104,6.776 -1.316,2.348 -2.624,4.765 -4.046,7.045 l 1.89,5.613 -2.945,5.362 c 4.518,18.756 -5.967,10.851 -6.721,24.334 -1.267,1.297 -4.011,3.703 -4.272,5.331 -4.284,1.383 -18.228,2.951 -22.853,2.812 l -6.27,0.068 c -4.952,-0.008 -16.28,0.291 -20.608,-0.311 l 2.088,-0.175 0.242,-0.562 c -1.435,-2.393 -5.557,-5.399 -7.914,-7.391 l -1.6,-5.503 c -4.718,-4.289 -8.704,-7.276 -8.655,-14.187 5.719,-1.847 15.1,-2.424 19.929,-5.525 l -0.02,-0.299 q 1.132,0.151 2.271,0.213 c 5.47,0.308 21.454,-2.153 25.589,-6.449 1.995,-2.073 2.751,-4.377 2.801,-7.18 4.111,-6.64 4.419,-7.356 2.486,-15.446 -0.728,-3.047 -0.271,-6.05 0.087,-9.154 -1.152,-2.402 -2.24,-4.92 -3.33,-7.358 4.191,-12.111 0.542,-14.412 2.041,-25.744 0.654,-4.945 6.595,-11.767 6.098,-18.468 -0.563,-7.589 -5.601,-12.073 -4.976,-19.755 0.403,-4.938 4.471,-7.941 5.66,-12.151 1.758,-6.227 -1.917,-12.755 -4.838,-17.945 -3.451,-6.13 -1.066,-12.358 1.074,-18.539 -1.333,-3.431 -2.133,-6.036 -3.157,-9.585 2.51,-6.834 7.848,-19.67 5.554,-26.408 -4.918,-14.45 -0.015,-22.561 1.851,-36.534 0.54,-4.039 -2.822,-11.109 -2.999,-15.614 -0.2,-5.098 0.487,-10.237 0.463,-15.48 14.434,-8.292 17.771,-12.199 27.188,-25.498"
     id="path37" />
  <path
     fill="#f0e9aa"
     d="m 284.36117,803.237 c 0.599,1.762 1.026,2.529 2.006,4.125 -0.673,2.229 -3.528,2.593 -3.42,5.724 0.155,4.5 4.026,7.6 5.724,11.532 -2.023,5.882 -3.25,7.074 -7.335,11.774 0.842,4.836 0.781,9.004 -1.82,13.258 -1.007,0.73 -1.753,0.696 -3.008,0.888 l -6.27,0.068 c -4.952,-0.008 -16.28,0.291 -20.608,-0.311 l 2.088,-0.175 0.242,-0.562 c -1.435,-2.393 -5.557,-5.399 -7.914,-7.391 l -1.6,-5.503 c -4.718,-4.289 -8.704,-7.276 -8.655,-14.187 5.719,-1.847 15.1,-2.424 19.929,-5.525 l -0.02,-0.299 q 1.132,0.151 2.271,0.213 c 5.47,0.308 21.454,-2.153 25.589,-6.449 1.995,-2.073 2.751,-4.377 2.801,-7.18"
     id="path38" />
  <path
     fill="#55c775"
     d="m 253.72017,816.952 c 7.218,5.885 7.748,5.45 6.076,14.927 4.4,6.533 6.75,11.873 10.442,18.727 -4.952,-0.008 -16.28,0.291 -20.608,-0.311 l 2.088,-0.175 0.242,-0.562 c -1.435,-2.393 -5.557,-5.399 -7.914,-7.391 l -1.6,-5.503 c -4.718,-4.289 -8.704,-7.276 -8.655,-14.187 5.719,-1.847 15.1,-2.424 19.929,-5.525"
     id="path39" />
  <path
     fill="#99d172"
     d="m 281.63617,197.011 c 5.676,0.313 12.567,0.515 18.014,1.752 l -1.18,0.43 c 0.131,1.146 -0.004,1.017 0.7,1.902 4.52,5.686 6.536,12.346 9.698,18.595 -1.016,8.047 0.317,10.093 4.379,17.079 -0.265,6.162 -0.047,28.45 1.35,33.763 0.927,3.528 2.812,6.735 4.421,9.988 -1.617,9.367 -0.103,10.504 0.764,19.688 0.256,2.708 -2.143,8.163 -2.161,11.9 -0.019,3.914 2.93,9.538 3.047,11.936 0.381,7.804 -1.121,22.479 -2.787,29.899 l 2.891,8.242 c -3.578,15.155 1.39,25.439 -3.187,43.644 1.32,3.114 1.546,3.524 2.297,6.722 0.775,3.299 -0.68,9.876 0.072,11.409 -1.4,4 -4.512,10.968 -3.605,14.761 1.329,1.179 1.158,0.813 3.281,1.115 -2.067,3.71 -3.876,6.822 -3.242,11.264 -2.469,8.571 -4.358,23.19 -0.146,31.501 -0.032,4.315 -0.854,8.541 -1.692,12.775 4.406,10.488 2.569,9.747 3.348,19.897 -7.61,-1.73 -8.393,1.857 -11.596,8.26 -4.192,8.38 -10.414,14.79 -18.588,19.342 -1.245,-6.296 -0.568,-8.129 1.494,-14.105 -1.808,-2.981 -2.63,-4.433 -4.028,-7.625 1.191,-4.378 2.297,-6.532 0.915,-10.837 l -0.208,-0.406 c -1.313,-3.31 -2.531,-7.034 -3.78,-10.433 a 82,82 0 0 0 1.935,-3.618 c 4.978,-10.094 4.112,-16.141 0.75,-26.318 l 1.233,-0.304 2.002,-5.077 c -1.652,-2.992 -3.263,-6.193 -4.853,-9.235 3.318,-11.675 8.002,-13.383 3.647,-25.658 -0.785,-2.215 2.447,-14.104 3.267,-17.341 -0.796,-1.667 -3.15,-6.524 -3.191,-8.023 -0.044,-4.586 0.531,-8.993 0.51,-13.61 -0.024,-5.451 -1.945,-13.805 -0.639,-19.118 1.771,-7.206 6.479,-13.319 6.21,-21.224 -0.297,-8.747 -6.058,-15.718 -5.187,-24.504 0.802,-7.337 6.329,-13.269 6.023,-20.895 -0.154,-3.821 -2.021,-7.025 -2.84,-10.884 -0.711,-3.352 -0.131,-10.158 -0.826,-12.841 -4.085,-15.779 -6.666,-15.882 -3.068,-32.255 l -3.269,-9.184 c 0.78,-3.114 1.91,-6.337 2.916,-9.402 -4.423,-8.127 -4.861,-9.245 -2.318,-17.918 l -3.444,-7.288 c 0.555,-3.298 0.676,-4.402 0.671,-7.761"
     id="path40" />
  <path
     fill="#55c775"
     d="m 284.79217,469.533 1.233,-0.304 c 11.746,9.506 11.226,31.428 -0.138,40.673 -1.313,-3.31 -2.531,-7.034 -3.78,-10.433 a 82,82 0 0 0 1.935,-3.618 c 4.978,-10.094 4.112,-16.141 0.75,-26.318"
     id="path41" />
  <path
     fill="#074e2d"
     d="m 316.38817,451.1 c 4.902,-9.5 13.848,-19.186 25.655,-13.006 7.883,4.125 10.76,13.292 12.935,21.346 1.669,11.433 0.626,16.346 -3.247,27.24 -1.717,1.493 -2.536,2.753 -4.884,2.481 -7.227,5.099 -9.816,5.099 -17.801,0.629 l -1.043,1.471 c -3.713,0.308 -8.027,-6.3 -11.761,-8.66 -4.212,-8.311 -2.323,-22.93 0.146,-31.501"
     id="path42" />
  <path
     fill="#fefefe"
     d="m 316.38817,451.1 c 4.902,-9.5 13.848,-19.186 25.655,-13.006 7.883,4.125 10.76,13.292 12.935,21.346 l -1.091,0.064 c -15.217,-30.649 -46.406,2.293 -24.841,30.286 l -1.043,1.471 c -3.713,0.308 -8.027,-6.3 -11.761,-8.66 -4.212,-8.311 -2.323,-22.93 0.146,-31.501"
     id="path43" />
  <path
     fill="#baddc4"
     d="m 353.88717,459.504 1.091,-0.064 c 1.669,11.433 0.626,16.346 -3.247,27.24 -1.717,1.493 -2.536,2.753 -4.884,2.481 q 0.45,-0.571 0.885,-1.154 c 7.165,-9.624 7.731,-17.046 6.155,-28.503"
     id="path44" />
  <path
     fill="#fefefe"
     d="m 339.22217,452.779 c 7.261,2.351 6.217,7.81 1.696,12.418 -8.44,-2.771 -6.132,-7.299 -1.696,-12.418"
     id="path45" />
  <defs
     id="defs46">
    <linearGradient
       id="b"
       x1="599.401"
       x2="576.55103"
       y1="447.629"
       y2="505.19199"
       gradientUnits="userSpaceOnUse"
       gradientTransform="translate(-246.72583,-30.448)">
      <stop
         offset="0"
         stop-color="#044828"
         id="stop45" />
      <stop
         offset="1"
         stop-color="#116239"
         id="stop46" />
    </linearGradient>
  </defs>
  <path
     fill="url(#b)"
     d="m 327.74317,414.068 c 7.297,-2.578 15.022,-5.227 21.473,0.881 2.595,2.456 2.731,3.588 4.487,6.448 l 1.411,-0.529 c 1.999,2.498 -5.598,11.451 -5.99,16.588 1,1.318 2.209,3.146 3.521,4.019 6.477,11.028 6.628,18.155 4.807,30.796 -0.325,2.251 -1.176,5.919 -0.749,7.992 -1.916,2.935 -2.57,3.857 -4.972,6.417 3.873,-10.894 4.916,-15.807 3.247,-27.24 -2.175,-8.054 -5.052,-17.221 -12.935,-21.346 -11.807,-6.18 -20.753,3.506 -25.655,13.006 -0.634,-4.442 1.175,-7.554 3.242,-11.264 -2.123,-0.302 -1.952,0.064 -3.281,-1.115 -0.907,-3.793 2.205,-10.761 3.605,-14.761 1.519,-3.07 1.958,-3.695 4.016,-6.377 0.992,-1.877 2.029,-2.452 3.773,-3.515"
     id="path46"
     style="fill:url(#b)" />
  <path
     fill="#55c775"
     d="m 327.74317,414.068 c 7.297,-2.578 15.022,-5.227 21.473,0.881 2.595,2.456 2.731,3.588 4.487,6.448 -3.068,4.626 -5.573,7.789 -7.945,12.866 -3.161,-1.413 -4.356,-1.835 -7.704,-2.719 0.872,-9.335 3.238,-11.313 5.471,-19.077 -5.873,-0.948 -8.488,14.574 -8.968,18.908 -2.882,0.575 -4.926,1.249 -7.695,2.136 -0.35,-7.757 0.461,-11.972 0.881,-19.443"
     id="path47" />
  <path
     fill="#55c775"
     d="m 323.97017,417.583 c -0.379,6.144 -1.004,11.77 -0.103,17.884 l -4.237,4.369 c -2.123,-0.302 -1.952,0.064 -3.281,-1.115 -0.907,-3.793 2.205,-10.761 3.605,-14.761 1.519,-3.07 1.958,-3.695 4.016,-6.377"
     id="path48" />
  <path
     fill="#55c775"
     d="m 352.64517,441.475 6.343,-3.651 c 7.93,13.739 5.824,29.259 -2.285,42.439 -0.427,-2.073 0.424,-5.741 0.749,-7.992 1.821,-12.641 1.67,-19.768 -4.807,-30.796"
     id="path49" />
  <path
     fill="#126f3d"
     d="m 349.12417,437.456 0.635,-0.103 c 6.676,-1.142 11.117,-6.231 14.91,-5.986 -0.147,1.779 -1.347,2.894 -2.623,3.976 q -1.509,1.265 -3.058,2.481 l -6.343,3.651 c -1.312,-0.873 -2.521,-2.701 -3.521,-4.019"
     id="path50" />
  <path
     fill="#f0e9aa"
     d="m 341.02217,502.116 c 13.005,0.538 18.976,11.931 4.933,17.056 -13.865,-0.644 -20.177,-12.129 -4.933,-17.056"
     id="path51" />
  <path
     fill="#55c775"
     d="m 292.78817,9.686 1.75,-0.876 c 6.44,2.503 9.346,31.397 8.827,38.14 l -0.003,10.11 c 3.602,-2.239 5.991,-3.927 9.967,-5.374 a 147.8,147.8 0 0 1 4.357,65.532 c 13.414,-12.915 30.451,-26.721 49.217,-30.564 -0.23,3.179 -0.532,6.531 -0.696,9.696 17.455,-6.843 38.804,-13.541 57.766,-10.771 -7.76,22.1 -15.201,35.759 -30.715,53.521 3.601,1.205 7.588,2.441 11.123,3.729 -12.084,15.256 -23.439,25.888 -42.947,31.177 2.079,2.394 3.777,4.252 6.018,6.491 -30.295,13.662 -47.953,10.365 -78.743,11.715 -3.209,1.086 -24.576,-0.867 -30.476,-0.765 -23.664,1.443 -55.335,-3.854 -76.505,-14.404 l 6.189,-6.441 c -18.096,-4.571 -28.297,-13.462 -36.241,-30.374 3.709,-1.058 7.685,-2.09 11.229,-3.55 -8.456,-18.121 -19.894,-36.461 -29.085,-54.537 23.805,-3.787 40.411,0.088 62.6,7.411 l 0.154,-10.429 c 20.811,5.829 33.063,14.53 46.825,30.98 -0.226,-27.778 -0.701,-42.382 13.408,-67.544 1.82,2.406 3.73,5.236 5.493,7.725 2.704,-7.362 5.032,-13.825 9.599,-20.302 5.149,-8.41 12.173,-15.606 20.889,-20.296"
     id="path52" />
  <path
     fill="#2fb361"
     d="m 291.10917,64.014 c 3.844,-5.822 7.619,-11.862 12.256,-17.064 l -0.003,10.11 c 3.602,-2.239 5.991,-3.927 9.967,-5.374 a 147.8,147.8 0 0 1 4.357,65.532 c 13.414,-12.915 30.451,-26.721 49.217,-30.564 -0.23,3.179 -0.532,6.531 -0.696,9.696 17.455,-6.843 38.804,-13.541 57.766,-10.771 -7.76,22.1 -15.201,35.759 -30.715,53.521 3.601,1.205 7.588,2.441 11.123,3.729 -12.084,15.256 -23.439,25.888 -42.947,31.177 2.079,2.394 3.777,4.252 6.018,6.491 -30.295,13.662 -47.953,10.365 -78.743,11.715 1.486,-2.622 2.474,-3.535 4.233,-5.708 23.828,-29.435 41.449,-24.774 75.275,-27.368 -8.632,-1.989 -34.197,-1.803 -43.859,-1.946 13.724,-8.024 27.29,-15.739 40.745,-24.233 a 81.5,81.5 0 0 0 23.962,1.201 c -6.786,-1.924 -13.571,-2.11 -20.469,-3.969 11.694,-8.694 23.25,-19.356 31.756,-31.176 -7.237,5.28 -14.246,11.312 -21.611,16.535 -9.716,6.889 -19.817,12.945 -29.984,19.122 1.181,-7.783 3.38,-23.362 3.299,-31.008 -2.402,9.981 -4.922,24.658 -8.393,33.799 -5.613,3.75 -14.646,8.32 -20.804,11.838 a 122.66,122.66 0 0 0 -39.646,35.588 c 0.265,-28.191 2.652,-35.92 16.935,-60.563 2.541,-4.384 8.051,-12.879 9.464,-17.305 -10.751,14.155 -18.848,25.512 -26.975,41.573 0.255,-13.617 -0.367,-27.792 -0.353,-41.569 12.563,-4.236 17.197,-7.189 25.179,-17.533 -9.736,7.385 -13.577,9.457 -24.811,14.367 0.179,-8.085 1.119,-19.856 2.555,-27.66 0.351,-4.178 0.928,-8.66 1.388,-12.854 1.452,0.155 3.166,0.245 4.514,0.67"
     id="path53" />
  <path
     fill="#99d172"
     d="m 286.59517,63.343 c 1.452,0.155 3.166,0.245 4.514,0.67 -1.52,3.545 -3.732,9.232 -5.902,12.184 0.351,-4.178 0.928,-8.66 1.388,-12.854"
     id="path54" />
  <path
     fill="#009e48"
     d="m 277.43817,93.855 c 0.926,-6.177 3.323,-15.935 4.592,-22.398 1.796,-9.143 3.91,-25.022 6.859,-33.29 -0.125,7.254 -1.414,17.868 -2.294,25.176 -0.46,4.195 -1.037,8.676 -1.388,12.854 -1.436,7.804 -2.376,19.575 -2.555,27.66 11.234,-4.91 15.075,-6.982 24.811,-14.367 -7.982,10.344 -12.616,13.297 -25.179,17.533 -0.014,13.777 0.608,27.952 0.353,41.569 8.127,-16.061 16.224,-27.418 26.975,-41.573 -1.413,4.426 -6.923,12.921 -9.464,17.305 -14.283,24.643 -16.67,32.372 -16.935,60.563 a 122.66,122.66 0 0 1 39.646,-35.588 c 6.158,-3.518 15.191,-8.088 20.804,-11.838 3.471,-9.141 5.991,-23.818 8.393,-33.799 0.081,7.646 -2.118,23.225 -3.299,31.008 10.167,-6.177 20.268,-12.233 29.984,-19.122 7.365,-5.223 14.374,-11.255 21.611,-16.535 -8.506,11.82 -20.062,22.482 -31.756,31.176 6.898,1.859 13.683,2.045 20.469,3.969 a 81.5,81.5 0 0 1 -23.962,-1.201 c -13.455,8.494 -27.021,16.209 -40.745,24.233 9.662,0.143 35.227,-0.043 43.859,1.946 -33.826,2.594 -51.447,-2.067 -75.275,27.368 -1.759,2.173 -2.747,3.086 -4.233,5.708 -3.209,1.086 -24.576,-0.867 -30.476,-0.765 3.129,-0.475 6.087,-0.25 9.247,-0.138 -4.033,-5.051 -17.867,-18.378 -23.522,-21.434 -16.369,-8.846 -37.665,-7.471 -55.522,-13.215 12.237,-0.79 31.08,1.231 43.329,2.666 -13.926,-11.702 -23.841,-24.216 -36.351,-37.246 -9.647,-10.048 -21.001,-18.955 -32.086,-27.351 17.121,7.058 42.115,25.218 53.059,39.852 -0.561,-11.082 -1.449,-22.127 -1.897,-33.228 3.716,12.166 4.99,25.482 6.502,38.12 17.307,15.824 33.376,26.02 50.779,43.213 -3.347,-12.765 -6.13,-26.331 -9.933,-38.888 -3.686,-12.174 -8.5,-24.049 -12.135,-36.388 8.121,12.385 19.44,41.528 25.076,56.131 -1.198,-23.405 -0.394,-42.118 2.127,-65.154 -8.165,-7.86 -13.65,-13.432 -19.419,-23.295 6.913,6.141 12.188,12.177 19.951,18.763"
     id="path55" />
  <path
     fill="#99d172"
     d="m 292.78817,9.686 c 0.67,3.685 -9.56,11.164 -12.075,14.476 -1.604,2.112 -5.148,5.972 -7.673,6.31 l -1.141,-0.49 c 5.149,-8.41 12.173,-15.606 20.889,-20.296"
     id="path56" />
  <path
     fill="#55c775"
     d="m 385.14917,805.512 c 2.871,0.04 10.336,0.303 12.689,-0.316 1.823,2.261 2.187,3.443 3.262,6.068 7.549,22.477 22.741,31.493 45.617,31.213 25.547,-0.312 43.206,18.73 31.55,43.799 -6.267,13.981 -19.322,21.085 -33.149,26.253 -7.648,2.853 -24.998,5.624 -32.687,3.618 -12.539,-1.065 -26.588,-6.745 -36.524,-14.396 -21.909,-16.872 -29.057,-38.34 -32.618,-64.536 0.398,-4.412 -0.05,-10.12 -0.564,-14.525 -0.462,-1.312 -0.734,-1.573 -1.474,-2.745 1.918,-5.377 18.869,-10.559 23.918,-12.092 6.095,-1.168 13.676,-1.725 19.98,-2.341"
     id="path57" />
  <path
     fill="#99d172"
     d="m 344.67417,821.182 c 2.491,6.253 3.384,16.098 5.079,23.001 6.773,27.571 24.154,52.715 50.244,65.06 3.142,1.488 10.01,4.761 12.434,6.904 -12.539,-1.065 -26.588,-6.745 -36.524,-14.396 -21.909,-16.872 -29.057,-38.34 -32.618,-64.536 0.398,-4.412 -0.05,-10.12 -0.564,-14.525 z"
     id="path58" />
  <path
     fill="#2fb361"
     d="m 385.14917,805.512 c 2.871,0.04 10.336,0.303 12.689,-0.316 1.823,2.261 2.187,3.443 3.262,6.068 -19.549,-2.711 -37.743,-2.264 -55.388,9.022 -0.424,0.271 -0.691,0.556 -1.038,0.896 l -1.949,1.508 c -0.462,-1.312 -0.734,-1.573 -1.474,-2.745 1.918,-5.377 18.869,-10.559 23.918,-12.092 6.095,-1.168 13.676,-1.725 19.98,-2.341"
     id="path59" />
  <path
     fill="#55c775"
     d="m 412.92317,509.912 c 1.536,0.554 2.148,0.315 3.844,0.073 14.668,-1.746 29.831,-7.278 36.86,-21.469 6.417,-12.955 18.543,-34.115 35.863,-19.705 5.621,7.029 2.552,11.294 4.548,14.823 a 41.5,41.5 0 0 1 30.665,-9.27 c 7.663,0.842 14.987,4.093 20.086,10.001 6.992,7.287 9.492,21.409 4.107,32.451 -16.848,34.544 -68.279,46.724 -103.344,52.192 -3.486,0.544 -19.316,1.835 -20.63,2.583 -3.712,-3.339 -6.942,-8.934 -8.874,-13.537 -6.26,-11.201 -6.584,-26.919 -5.841,-39.375 0.462,-3.519 0.891,-5.728 2.716,-8.767"
     id="path60" />
  <path
     fill="#99d172"
     d="m 412.92317,509.912 c 1.536,0.554 2.148,0.315 3.844,0.073 14.668,-1.746 29.831,-7.278 36.86,-21.469 6.417,-12.955 18.543,-34.115 35.863,-19.705 -8.097,0.977 -15.094,-0.6 -21.226,7.2 -3.5,4.451 -6.093,11.158 -8.796,16.366 -8.815,16.983 -26.392,22.513 -44.174,25.137 -1.164,0.172 -2.157,0.301 -3.345,0.268 l -1.742,0.897 c 0.462,-3.519 0.891,-5.728 2.716,-8.767"
     id="path61" />
  <path
     fill="#99d172"
     d="m 494.03817,483.634 a 41.5,41.5 0 0 1 30.665,-9.27 c 7.663,0.842 14.987,4.093 20.086,10.001 -1.806,0.045 -8.624,-3.6 -11.27,-4.349 -10.722,-3.036 -21.776,-1.141 -31.597,3.841 -1.686,0.855 -8.36,4.989 -9.363,5.088 1.361,-2.76 1.792,-2.533 1.479,-5.311"
     id="path62" />
  <path
     fill="#2fb361"
     d="m 410.20717,518.679 1.742,-0.897 c 1.07,6.448 -0.156,15.385 0.909,22.712 0.534,3.672 4.072,15.698 3.796,17.127 l -0.606,0.433 c -6.26,-11.201 -6.584,-26.919 -5.841,-39.375"
     id="path63" />
  <path
     fill="#55c775"
     d="m 90.677167,906.775 c -11.765,-5.804 -23.177,-17.883 -26.138,-30.857 -4.907,-21.498 11.678,-37.451 31.994,-39.042 9.298003,-0.729 23.211003,0.073 31.151003,-5.565 7.004,-4.972 11.217,-15.366 15.817,-22.523 l 0.936,-0.037 1.091,1.188 c 14.9,13.085 22.464,19.683 40.473,29.247 a 336,336 0 0 1 -0.216,9.93 c -2.225,21.057 -6.724,40.165 -23.967,54.548 -11.774,9.822 -28.411,12.999 -43.331,11.326 -7.109,-0.797 -21.839003,-4.156 -27.810003,-8.215"
     id="path64" />
  <path
     fill="#99d172"
     d="m 90.677167,906.775 c -11.765,-5.804 -23.177,-17.883 -26.138,-30.857 -4.907,-21.498 11.678,-37.451 31.994,-39.042 9.298003,-0.729 23.211003,0.073 31.151003,-5.565 7.004,-4.972 11.217,-15.366 15.817,-22.523 l 0.936,-0.037 1.091,1.188 c -0.28,2.807 -0.481,4.669 -1.069,7.475 -2.569,9.908 -8.178,17.624 -17.139,23.195 -18.347,11.405 -45.537003,-2.738 -53.304003,24.488 -2.637,9.244 0.75,18.578 5.156,26.511 3.232,5.82 10.062,11.481 11.748,14.58 z"
     id="path65" />
  <path
     fill="#55c775"
     d="m 145.52817,809.939 c 14.9,13.085 22.464,19.683 40.473,29.247 a 336,336 0 0 1 -0.216,9.93 c -3.577,-2.552 -7.6,-4.192 -11.194,-6.932 -10.495,-8.002 -20.118,-16.409 -30.132,-24.77 0.588,-2.806 0.789,-4.668 1.069,-7.475"
     id="path66" />
  <path
     fill="#55c775"
     d="m 65.301167,477.07 c 0.149,-4.933 0.564,-9.623 4.013,-13.532 a 11.13,11.13 0 0 1 8.043,-3.813 c 5.347,-0.21 9.986,2.792 13.764,6.259 14.437003,14.22 -0.594,28.188 30.329003,44.061 -2.45,19.621 -5.222,39.785 -7.34,59.4 -24.917003,-5.315 -59.207003,-15.581 -78.969003,-32.151 -1.552,-1.066 -2.698,-2.009 -4.153,-3.176 -11.402,-9.178 -21.0539998,-21.846 -22.5149998,-36.823 -1.572,-16.12 8.7189998,-32.146 26.0059998,-32.886 12.819,-0.549 21.543,4.281 30.822,12.661"
     id="path67" />
  <path
     fill="#99d172"
     d="m 65.301167,477.07 c 0.149,-4.933 0.564,-9.623 4.013,-13.532 a 11.13,11.13 0 0 1 8.043,-3.813 c 5.347,-0.21 9.986,2.792 13.764,6.259 -5.221,0.483 -14.813,-3.784 -19.177,1.138 -3.289,3.711 -3.687,11.54 -3.829,16.365 -9.265,-7.211 -19.4,-14.154 -31.858,-12.543 a 21.67,21.67 0 0 0 -14.747,8.52 c -13.7289998,18.182 -0.673,42.065 12.794,55.267 0.843,0.826 1.194,1.516 0.837,2.563 -1.552,-1.066 -2.698,-2.009 -4.153,-3.176 -11.402,-9.178 -21.0539998,-21.846 -22.5149998,-36.823 -1.572,-16.12 8.7189998,-32.146 26.0059998,-32.886 12.819,-0.549 21.543,4.281 30.822,12.661"
     id="path68" />
</svg>
